<svg fill="none" xmlns="http://www.w3.org/2000/svg" viewBox="0 0 128.04 28.01" ><path d="M92.6736 21.5123H92.8631V19.6997H93.8315V24.758H92.8842V24.4208H92.6947C92.5052 24.6737 92.1894 24.8423 91.6842 24.8423C90.7369 24.8423 90.1685 24.0414 90.1685 22.9665C90.1685 21.8917 90.7369 21.0907 91.6842 21.0907C92.2105 21.0907 92.4842 21.2594 92.6736 21.5123ZM92.8842 22.9665C92.8842 22.3975 92.6105 21.8916 92.021 21.8916C91.4316 21.8916 91.1579 22.3553 91.1579 22.9665C91.1579 23.5567 91.4316 24.0414 92.021 24.0414C92.6315 24.0414 92.8842 23.5356 92.8842 22.9665Z" fill="black"></path>         <path d="M97.8524 23.093H95.2841C95.3051 23.7042 95.5999 24.0625 96.1472 24.0625C96.5261 24.0625 96.7156 23.9361 96.8209 23.6831H97.8103C97.663 24.3997 97.1156 24.8634 96.1472 24.8634C95.0104 24.8634 94.3157 24.1047 94.3157 22.9665C94.3157 21.8284 95.0104 21.1118 96.1262 21.1118C97.2209 21.1118 97.8314 21.8284 97.8524 22.819V23.093ZM95.3262 22.4396H96.863C96.7998 22.0813 96.5683 21.8284 96.1262 21.8284C95.663 21.8284 95.4314 22.0813 95.3262 22.4396Z" fill="black"></path>         <path d="M99.3261 19.6997H98.3577V24.758H99.3261V19.6997Z" fill="black"></path>         <path d="M103.726 19.7839C104.863 19.7839 105.515 20.3741 105.515 21.3647C105.515 22.3763 104.863 22.9665 103.726 22.9665H102.505V24.758H101.473V19.7839H103.726ZM103.579 22.0602C104.21 22.0602 104.463 21.8073 104.463 21.3857C104.463 20.9431 104.231 20.7113 103.579 20.7113H102.484V22.0813H103.579V22.0602Z" fill="black"></path>         <path d="M109.073 23.093H106.505C106.526 23.7042 106.821 24.0625 107.368 24.0625C107.747 24.0625 107.936 23.9361 108.042 23.6831H109.031C108.884 24.3997 108.336 24.8634 107.368 24.8634C106.231 24.8634 105.536 24.1047 105.536 22.9665C105.536 21.8284 106.231 21.1118 107.347 21.1118C108.442 21.1118 109.052 21.8284 109.073 22.819V23.093ZM106.547 22.4396H108.084C108.021 22.0813 107.789 21.8284 107.347 21.8284C106.884 21.8284 106.652 22.0813 106.547 22.4396Z" fill="black"></path>         <path d="M111.978 22.0812H111.62C110.863 22.0812 110.526 22.4605 110.526 23.1771V24.7368H109.557V21.1538H110.505V21.5543H110.694C110.799 21.3857 111.073 21.1538 111.663 21.1538H111.999V22.0812H111.978Z" fill="black"></path>         <path d="M113.284 21.1751V23.1984C113.284 23.7042 113.536 23.9782 113.978 23.9782C114.462 23.9782 114.778 23.5567 114.778 23.0719V21.1751H115.747V24.758H114.799V24.4208H114.61C114.399 24.6948 114.063 24.8423 113.62 24.8423C112.715 24.8423 112.294 24.2944 112.294 23.367V21.1751H113.284ZM114.399 20.7114H113.536L114.168 19.6997H115.199L114.399 20.7114Z" fill="black"></path>         <path d="M94.1052 13.8614H92.5684V17.9291H91.5368V13.8614H90V12.9551H94.1052V13.8614Z" fill="black"></path>         <path d="M97.1156 16.2431H94.5683C94.5894 16.8544 94.8841 17.2127 95.4314 17.2127C95.7893 17.2127 95.9998 17.0862 96.1051 16.8333H97.0946C96.9472 17.5499 96.3998 18.0136 95.4314 18.0136C94.2946 18.0136 93.621 17.2548 93.621 16.1167C93.621 14.9786 94.3157 14.262 95.4104 14.262C96.484 14.262 97.1156 14.9786 97.1367 15.9692V16.2431H97.1156ZM94.5894 15.6109H96.1262C96.063 15.2526 95.8314 14.9996 95.3893 14.9996C94.9262 14.9996 94.6946 15.2315 94.5894 15.6109Z" fill="black"></path>         <path d="M100.947 16.7279C100.863 17.5077 100.21 18.0136 99.305 18.0136C98.2103 18.0136 97.5156 17.2759 97.5156 16.1378C97.5156 15.0207 98.2103 14.262 99.305 14.262C100.21 14.262 100.821 14.7678 100.905 15.4844H99.9365C99.8523 15.2104 99.6629 15.0629 99.305 15.0629C98.6945 15.0629 98.4629 15.5476 98.4629 16.1167C98.4629 16.7068 98.6945 17.1916 99.305 17.1916C99.6839 17.1916 99.9155 17.0019 99.9786 16.7068H100.947V16.7279Z" fill="black"></path>         <path d="M103.915 17.9293V15.9059C103.915 15.4001 103.663 15.1261 103.221 15.1261C102.736 15.1261 102.421 15.5476 102.421 16.0324V17.9293H101.452V14.3463H102.4V14.6835H102.589C102.8 14.4095 103.136 14.262 103.579 14.262C104.484 14.262 104.905 14.8099 104.905 15.7373V17.9293H103.915Z" fill="black"></path>         <path d="M109.073 16.1378C109.073 17.2548 108.357 18.0136 107.221 18.0136C106.105 18.0136 105.368 17.2548 105.368 16.1378C105.368 15.0207 106.084 14.262 107.221 14.262C108.357 14.262 109.073 15.0207 109.073 16.1378ZM108.105 16.1378C108.105 15.5687 107.831 15.0839 107.221 15.0839C106.61 15.0839 106.336 15.5687 106.336 16.1378C106.336 16.7068 106.61 17.2127 107.221 17.2127C107.831 17.2127 108.105 16.7068 108.105 16.1378Z" fill="black"></path>         <path d="M110.547 12.8708H109.578V17.9292H110.547V12.8708Z" fill="black"></path>         <path d="M114.757 16.1377C114.757 17.2547 114.041 18.0135 112.905 18.0135C111.789 18.0135 111.052 17.2547 111.052 16.1377C111.052 15.0206 111.768 14.2619 112.905 14.2619C114.041 14.2619 114.757 15.0206 114.757 16.1377ZM113.789 16.1377C113.789 15.5686 113.515 15.0839 112.905 15.0839C112.294 15.0839 112.02 15.5686 112.02 16.1377C112.02 16.7068 112.294 17.2126 112.905 17.2126C113.515 17.2126 113.789 16.7068 113.789 16.1377ZM113.305 13.8825H112.442L113.073 12.8708H114.105L113.305 13.8825Z" fill="black"></path>         <path d="M118.715 14.3463V17.7397C118.715 18.7513 117.978 19.3836 116.926 19.3836C115.936 19.3836 115.284 18.9621 115.199 18.1823H116.168C116.21 18.4773 116.462 18.6249 116.905 18.6249C117.515 18.6249 117.747 18.2033 117.747 17.6553V17.4446H117.557C117.389 17.6764 117.136 17.845 116.631 17.845C115.684 17.845 115.073 17.1074 115.073 16.0535C115.073 14.9997 115.684 14.241 116.631 14.241C117.136 14.241 117.452 14.4517 117.599 14.6625H117.789V14.3253H118.715V14.3463ZM117.768 16.0746C117.768 15.5266 117.473 15.084 116.883 15.084C116.336 15.084 116.02 15.5056 116.02 16.0746C116.02 16.6437 116.336 17.0652 116.883 17.0652C117.473 17.0652 117.768 16.6015 117.768 16.0746Z" fill="black"></path>         <path d="M119.473 12.8708H120.462V13.735H119.473V12.8708ZM120.441 17.9292H119.473V14.3462H120.441V17.9292Z" fill="black"></path>         <path d="M124.378 16.7279C124.294 17.5077 123.641 18.0136 122.736 18.0136C121.641 18.0136 120.925 17.2759 120.925 16.1378C120.925 15.0207 121.62 14.262 122.736 14.262C123.641 14.262 124.252 14.7678 124.336 15.4844H123.367C123.283 15.2104 123.094 15.0629 122.736 15.0629C122.125 15.0629 121.894 15.5476 121.894 16.1167C121.894 16.7068 122.125 17.1916 122.736 17.1916C123.115 17.1916 123.346 17.0019 123.41 16.7068H124.378V16.7279Z" fill="black"></path>         <path d="M127.115 17.613H126.925C126.715 17.8659 126.399 18.0135 125.915 18.0135C125.115 18.0135 124.652 17.4655 124.652 16.8332C124.652 16.2852 125.052 15.6529 126.104 15.6529H127.052V15.5686C127.052 15.2103 126.841 15.0206 126.42 15.0206C126.041 15.0206 125.852 15.1682 125.809 15.4H124.841C124.862 14.7045 125.494 14.283 126.357 14.283C127.325 14.283 127.978 14.6623 127.978 15.6318V17.9503H127.073V17.613H127.115ZM127.073 16.496V16.2641H126.315C125.894 16.2641 125.641 16.4117 125.641 16.7489C125.641 17.0861 125.873 17.2337 126.273 17.2337C126.736 17.2337 127.073 16.9386 127.073 16.496Z" fill="black"></path>         <path d="M94.3578 6.0843V9.22469C94.3578 10.4471 93.6209 11.1426 92.2736 11.1426C90.9473 11.1426 90.1895 10.4471 90.1895 9.22469V6.0843H91.221V9.20361C91.221 9.81482 91.5999 10.2153 92.2736 10.2153C92.9473 10.2153 93.3262 9.81482 93.3262 9.20361V6.0843H94.3578ZM97.4735 11.0583V9.035C97.4735 8.52916 97.2208 8.25517 96.7787 8.25517C96.2945 8.25517 95.9788 8.6767 95.9788 9.16146V11.0583H95.0104V7.47535H95.9577V7.81257H96.1472C96.3577 7.53857 96.6945 7.39104 97.1366 7.39104C98.0419 7.39104 98.4629 7.93902 98.4629 8.86638V11.0583H97.4735ZM99.0734 6H100.063V6.86413H99.0734V6ZM100.063 11.0583H99.0945V7.47535H100.063V11.0583ZM100.547 7.47535H101.537L102.273 10.1731H102.568L103.284 7.47535H104.273L103.242 11.0583H101.558L100.547 7.47535ZM107.915 9.37222H105.347C105.368 9.98343 105.663 10.3417 106.21 10.3417C106.589 10.3417 106.778 10.2153 106.884 9.96236H107.873C107.726 10.679 107.178 11.1426 106.21 11.1426C105.073 11.1426 104.379 10.3839 104.379 9.24576C104.379 8.10764 105.073 7.39104 106.189 7.39104C107.284 7.39104 107.894 8.10764 107.915 9.07715V9.37222ZM105.389 8.73993H106.926C106.863 8.38163 106.631 8.12871 106.189 8.12871C105.705 8.12871 105.473 8.38163 105.389 8.73993ZM110.884 8.38163H110.526C109.768 8.38163 109.431 8.761 109.431 9.4776V11.0373H108.463V7.45427H109.41V7.85472H109.599C109.705 7.68611 109.999 7.45427 110.568 7.45427H110.905V8.38163H110.884ZM113.347 8.46593C113.305 8.21302 113.073 8.14979 112.778 8.14979C112.484 8.14979 112.252 8.23409 112.252 8.46593C112.252 8.65562 112.399 8.71885 112.631 8.761L113.284 8.86638C113.957 8.97177 114.42 9.28791 114.42 10.0045C114.42 10.5946 113.894 11.1637 112.841 11.1637C111.747 11.1637 111.241 10.7 111.157 9.94128H112.126C112.168 10.2574 112.42 10.405 112.841 10.405C113.241 10.405 113.452 10.2785 113.452 10.0256C113.452 9.77267 113.284 9.68836 112.947 9.62514L112.252 9.51975C111.684 9.41437 111.284 9.14038 111.284 8.52916C111.284 7.91795 111.747 7.41212 112.799 7.41212C113.705 7.41212 114.231 7.83365 114.315 8.48701H113.347V8.46593ZM114.926 6H115.915V6.86413H114.926V6ZM115.894 11.0583H114.926V7.47535H115.894V11.0583ZM118.883 7.81257H119.073V6H120.041V11.0583H119.094V10.7422H118.904C118.715 10.9951 118.399 11.1637 117.894 11.1637C116.947 11.1637 116.378 10.3628 116.378 9.28791C116.378 8.21302 116.947 7.41212 117.894 7.41212C118.42 7.39104 118.694 7.55965 118.883 7.81257ZM119.115 9.26684C119.115 8.69778 118.841 8.21302 118.252 8.21302C117.662 8.21302 117.389 8.6767 117.389 9.26684C117.389 9.85698 117.662 10.3417 118.252 10.3417C118.841 10.3417 119.115 9.8359 119.115 9.26684ZM122.989 10.7422H122.799C122.589 10.9951 122.273 11.1426 121.789 11.1426C120.989 11.1426 120.525 10.5947 120.525 9.96236C120.525 9.41437 120.925 8.78208 121.978 8.78208H122.925V8.69778C122.925 8.33948 122.715 8.14979 122.294 8.14979C121.915 8.14979 121.725 8.29732 121.683 8.52916H120.715C120.736 7.83364 121.368 7.41212 122.231 7.41212C123.199 7.41212 123.852 7.79149 123.852 8.761V11.0794H122.946V10.7422H122.989ZM122.946 9.62514V9.39329H122.189C121.767 9.39329 121.515 9.54083 121.515 9.87805C121.515 10.1942 121.746 10.3628 122.146 10.3628C122.631 10.3839 122.946 10.0677 122.946 9.62514ZM126.883 7.81257H127.073V6H128.041V11.0583H127.094V10.7422H126.904C126.715 10.9951 126.399 11.1637 125.894 11.1637C124.946 11.1637 124.378 10.3628 124.378 9.28791C124.378 8.21302 124.946 7.41212 125.894 7.41212C126.399 7.39104 126.694 7.55965 126.883 7.81257ZM127.094 9.26684C127.094 8.69778 126.82 8.21302 126.231 8.21302C125.641 8.21302 125.367 8.6767 125.367 9.26684C125.367 9.85698 125.641 10.3417 126.231 10.3417C126.82 10.3417 127.094 9.8359 127.094 9.26684Z" fill="black"></path>         <path class="fill-none" d="M27.9992 0H0V28.0105H27.9992V0Z" fill="#D01A49"></path>         <path class="fill-none" d="M16.9679 6.21753H21.7888V18.9266L18.7152 21.7719H9.28393L6.23138 18.9266V6.21753H11.0523V17.388L11.7049 18.0414H16.2943L16.9679 17.388V6.21753Z" fill="white"></path>         <path class="fill-none" d="M55.9984 0H27.9992V28.0105H55.9984V0Z" fill="black"></path>         <path class="fill-none" d="M39.5989 21.7719V9.94805H34.2306V6.21753H49.788V9.94805H44.4198V21.7719H39.5989Z" fill="white"></path>         <path class="fill-none" d="M83.9992 0H56V28.0105H83.9992V0Z" fill="#D01A49"></path>         <path class="fill-none" d="M67.0524 16.5145V20.7719H62.2314V5.21753H74.9469L77.7889 7.85208V13.8799L74.9469 16.5145H67.0524ZM72.3154 8.96913H67.0524V12.805H72.3154L72.968 12.1517V9.6225L72.3154 8.96913Z" fill="white"></path></svg>